<svg xmlns="http://www.w3.org/2000/svg" viewBox="0 0 36 36"><script xmlns="" id="__gaOptOutExtension"/><path fill="#EA596E" d="M29.896 26.667c.003.283-.07.653-.146.958-.531 2.145-2.889 4.552-6.208 4.333-3.008-.198-5.458-1.642-5.458-3.667s2.444-3.667 5.458-3.667 6.335.018 6.354 2.043z"/><path fill="#DD2E44" d="M23.542 24.964c-1.619 0-5.314.448-6.162.448-1.498 0-2.713.94-2.713 2.1 0 .558.286 1.062.744 1.438 0 0 1.006 1.009 2.818.525.793-.212 2.083-1.786 4.354-2.036 1.131-.125 3.25.75 6.974.771.16-.344.193-.583.193-.583 0-2.027-3.194-2.663-6.208-2.663z"/><path fill="#F4ABBA" d="M29.75 27.625s2.184-.443 3.542-2.229c1.583-2.083 1.375-4.312 1.375-4.312 1.604-3-.5-5.813-.5-5.813C33.958 12.104 32 10.792 32 10.792c-1.271-3.021-4.083-3.833-4.083-3.833-2.208-2.583-6.125-2.5-6.125-2.5s-3.67-1.345-8.708.167c-.833.25-3.625.833-5.667 2.083C.981 10.649.494 16.793.584 17.792 1.083 23.375 5 24.375 7.5 24.958c.583 1.583 2.729 4.5 6.583 3.417 4.75-.833 6.75-2.25 7.917-2.25s4.417 1.25 7.75 1.5z"/></svg>