{"asset":{"version":"2.0","generator":"Blockbench 4.9.3 glTF exporter"},"scenes":[{"nodes":[4],"name":"blockbench_export"}],"scene":0,"nodes":[{"name":"base","mesh":0},{"rotation":[-0.7071067811865476,0,0,0.7071067811865476],"name":"outer","mesh":1},{"rotation":[0,0,0.7071067811865476,0.7071067811865476],"name":"inner","mesh":2},{"name":"sphere","mesh":3},{"children":[0,1,2,3]}],"bufferViews":[{"buffer":0,"byteOffset":0,"byteLength":288,"target":34962,"byteStride":12},{"buffer":0,"byteOffset":288,"byteLength":288,"target":34962,"byteStride":12},{"buffer":0,"byteOffset":576,"byteLength":192,"target":34962,"byteStride":8},{"buffer":0,"byteOffset":768,"byteLength":72,"target":34963},{"buffer":0,"byteOffset":840,"byteLength":2304,"target":34962,"byteStride":12},{"buffer":0,"byteOffset":3144,"byteLength":2304,"target":34962,"byteStride":12},{"buffer":0,"byteOffset":5448,"byteLength":1536,"target":34962,"byteStride":8},{"buffer":0,"byteOffset":6984,"byteLength":576,"target":34963},{"buffer":0,"byteOffset":7560,"byteLength":2304,"target":34962,"byteStride":12},{"buffer":0,"byteOffset":9864,"byteLength":2304,"target":34962,"byteStride":12},{"buffer":0,"byteOffset":12168,"byteLength":1536,"target":34962,"byteStride":8},{"buffer":0,"byteOffset":13704,"byteLength":576,"target":34963},{"buffer":0,"byteOffset":14280,"byteLength":3168,"target":34962,"byteStride":12},{"buffer":0,"byteOffset":17448,"byteLength":3168,"target":34962,"byteStride":12},{"buffer":0,"byteOffset":20616,"byteLength":2112,"target":34962,"byteStride":8},{"buffer":0,"byteOffset":22728,"byteLength":720,"target":34963}],"buffers":[{"byteLength":23448,"uri":"data:application/octet-stream;base64,"}],"accessors":[{"bufferView":0,"componentType":5126,"count":24,"max":[0.5,0.125,0.5],"min":[-0.5,0,-0.5],"type":"VEC3"},{"bufferView":1,"componentType":5126,"count":24,"max":[1,1,1],"min":[-1,-1,-1],"type":"VEC3"},{"bufferView":2,"componentType":5126,"count":24,"max":[0.71875,0.5],"min":[0,0],"type":"VEC2"},{"bufferView":3,"componentType":5123,"count":36,"max":[23],"min":[0],"type":"SCALAR"},{"bufferView":4,"componentType":5126,"count":192,"max":[0.4375,0.09375,0.96875],"min":[-0.4375,-0.09375,0.09375],"type":"VEC3"},{"bufferView":5,"componentType":5126,"count":192,"max":[1,1,1],"min":[-1,-1,-1],"type":"VEC3"},{"bufferView":6,"componentType":5126,"count":192,"max":[0.646512508392334,0.59375],"min":[0.0012703124666586518,0],"type":"VEC2"},{"bufferView":7,"componentType":5123,"count":288,"max":[191],"min":[0],"type":"SCALAR"},{"bufferView":8,"componentType":5126,"count":192,"max":[0.8125,0.0625,0.28125],"min":[0.25,-0.0625,-0.28125],"type":"VEC3"},{"bufferView":9,"componentType":5126,"count":192,"max":[1,1,1],"min":[-1,-1,-1],"type":"VEC3"},{"bufferView":10,"componentType":5126,"count":192,"max":[0.7006359100341797,0.640625],"min":[0.002071874914690852,0.125],"type":"VEC2"},{"bufferView":11,"componentType":5123,"count":288,"max":[191],"min":[0],"type":"SCALAR"},{"bufferView":12,"componentType":5126,"count":264,"max":[0.1875,0.71875,0.1875],"min":[-0.1875,0.34375,-0.1875],"type":"VEC3"},{"bufferView":13,"componentType":5126,"count":264,"max":[0.9659258127212524,0.9659258127212524,0.9659258127212524],"min":[-0.9659258127212524,-0.9659258127212524,-0.9659258127212524],"type":"VEC3"},{"bufferView":14,"componentType":5126,"count":264,"max":[0.6289631128311157,0.6484375],"min":[0.12872456014156342,0.046875],"type":"VEC2"},{"bufferView":15,"componentType":5123,"count":360,"max":[263],"min":[0],"type":"SCALAR"}],"materials":[{"pbrMetallicRoughness":{"metallicFactor":0,"roughnessFactor":1,"baseColorTexture":{"index":0}},"alphaMode":"MASK","alphaCutoff":0.05,"doubleSided":true}],"textures":[{"sampler":0,"source":0}],"samplers":[{"magFilter":9728,"minFilter":9728,"wrapS":33071,"wrapT":33071}],"images":[{"mimeType":"image/png","uri":"data:image/png;base64,"}],"meshes":[{"primitives":[{"mode":4,"attributes":{"POSITION":0,"NORMAL":1,"TEXCOORD_0":2},"indices":3,"material":0}]},{"primitives":[{"mode":4,"attributes":{"POSITION":4,"NORMAL":5,"TEXCOORD_0":6},"indices":7,"material":0}]},{"primitives":[{"mode":4,"attributes":{"POSITION":8,"NORMAL":9,"TEXCOORD_0":10},"indices":11,"material":0}]},{"primitives":[{"mode":4,"attributes":{"POSITION":12,"NORMAL":13,"TEXCOORD_0":14},"indices":15,"material":0}]}]}